<svg width="3017" height="3017" viewBox="0 0 3017 3017" fill="none" xmlns="http://www.w3.org/2000/svg">
<path d="M1425.04 1975.06L1040.56 1590.47C984.419 1534.06 1003.08 1552.73 957.518 1507.26C441.664 991.1 353.85 947.658 353.85 741.639C353.881 522.724 530.715 352.581 742.341 352.571C939.074 352.571 1024.86 473.897 1175.79 625.034L1425.15 375.525C1253.67 203.94 1091.65 0 742.341 0C329.749 0.009525 0.0223172 334.928 0 741.066C0 1089.63 204.851 1253.05 376.447 1424.74L377.134 1424.17C836.212 1885.17 654.083 1702.66 1175.68 2224.58L1425.04 1975.06ZM2640.29 1424.17C2811.76 1252.59 3015.58 1090.33 3015.58 741.524C3015.66 77.3279 2210.4 -243.853 1749.41 217.143L792.464 1174.66L1040.79 1424.06L1998.77 466.652C2241.77 223.544 2662.26 393.232 2662.31 741.524C2662.31 938.728 2542.32 1023.18 2390.92 1174.66L2640.29 1424.17ZM2274.05 3015.68C2934.25 3015.68 3264.28 2215.75 2798.46 1749.66L1840.71 791.334L1591.47 1040.84L1975.72 1424.29C2003.31 1452.02 2026.92 1475.41 2058.86 1507.38L2058.75 1507.49C2410.63 1859.69 2300.95 1749.84 2549.45 1998.47C2699.66 2150.32 2699.66 2397.3 2549.21 2549.26C2402.05 2696.57 2145.69 2696.46 1998.77 2549.26L1840.6 2390.87L1591.23 2640.38C1763.3 2812.32 1925.11 3015.66 2274.05 3015.68ZM742.341 3016.25C1134.04 3016.25 1215.82 2849.61 2224.85 1839.98L1975.37 1590.71C943.791 2622.66 956.573 2663.11 742.341 2663.11C396.687 2663.09 224.637 2242.82 467.173 1998.01L625.231 1839.75L376.447 1590.82L217.815 1749.66C-249.291 2217.04 86.9633 3016.23 742.341 3016.25Z" fill="#FF6E3C"/>
</svg>
